<svg width="40" height="40" viewBox="0 0 40 40" fill="none" xmlns="http://www.w3.org/2000/svg">
<g id="Google logo">
<path id="Vector" d="M5.10665 12.5166C6.49333 9.75532 8.6206 7.4341 11.2507 5.81237C13.8808 4.19063 16.9101 3.33228 20 3.33325C24.4916 3.33325 28.265 4.98492 31.15 7.67492L26.3716 12.4549C24.6433 10.8033 22.4466 9.96159 20 9.96159C15.6583 9.96159 11.9833 12.8949 10.675 16.8333C10.3416 17.8333 10.1516 18.8999 10.1516 19.9999C10.1516 21.0999 10.3416 22.1666 10.675 23.1666C11.985 27.1066 15.6583 30.0383 20 30.0383C22.2416 30.0383 24.15 29.4466 25.6433 28.4466C26.509 27.8766 27.2502 27.137 27.822 26.2724C28.3938 25.4079 28.7843 24.4363 28.97 23.4166H20V16.9699H35.6966C35.8933 18.0599 36 19.1966 36 20.3783C36 25.4549 34.1833 29.7283 31.03 32.6283C28.2733 35.1749 24.5 36.6666 20 36.6666C17.811 36.6675 15.6434 36.237 13.6209 35.3997C11.5984 34.5624 9.76073 33.3348 8.21291 31.787C6.6651 30.2392 5.43747 28.4015 4.6002 26.379C3.76294 24.3565 3.33244 22.1889 3.33331 19.9999C3.33331 17.3099 3.97665 14.7666 5.10665 12.5166Z" fill="white"/>
</g>
</svg>
