<svg width="100" height="100" viewBox="0 0 100 100" fill="none" xmlns="http://www.w3.org/2000/svg">
<g id="Ribbon Logo">
<path id="Vector" d="M50 56.25C63.8071 56.25 75 45.0571 75 31.25C75 17.4429 63.8071 6.25 50 6.25C36.1929 6.25 25 17.4429 25 31.25C25 45.0571 36.1929 56.25 50 56.25Z" stroke="white" stroke-width="6.25" stroke-linecap="round" stroke-linejoin="round"/>
<path id="Vector_2" d="M28.0566 44.4961L9.375 78.125L26.3398 78.043C26.8834 78.0402 27.4183 78.1793 27.8916 78.4465C28.365 78.7136 28.7605 79.0997 29.0391 79.5664L37.5 93.75L54.752 55.7969" stroke="white" stroke-width="6.25" stroke-linecap="round" stroke-linejoin="round"/>
<path id="Vector_3" d="M71.5898 43.75L90.625 78.125L73.6602 78.043C73.1166 78.0402 72.5817 78.1793 72.1084 78.4465C71.635 78.7136 71.2395 79.0997 70.9609 79.5664L62.5 93.75L50 66.25" stroke="white" stroke-width="6.25" stroke-linecap="round" stroke-linejoin="round"/>
<path id="Vector_4" d="M50 43.75C56.9036 43.75 62.5 38.1536 62.5 31.25C62.5 24.3464 56.9036 18.75 50 18.75C43.0964 18.75 37.5 24.3464 37.5 31.25C37.5 38.1536 43.0964 43.75 50 43.75Z" stroke="white" stroke-width="6.25" stroke-linecap="round" stroke-linejoin="round"/>
</g>
</svg>
