<svg xmlns="http://www.w3.org/2000/svg" width="25" height="25" viewBox="0 0 25 25" fill="none">
  <g clip-path="url(#clip0_152_365)">
    <path d="M12.4999 2.95139C10.3143 2.94889 8.17362 3.5719 6.33069 4.74686C4.48776 5.92181 3.01957 7.59963 2.0995 9.58215C1.17944 11.5647 0.845935 13.7691 1.13838 15.935C1.43083 18.101 2.33702 20.138 3.74992 21.8056L3.95825 22.0486H21.0416L21.2499 21.8056C22.6628 20.138 23.569 18.101 23.8615 15.935C24.1539 13.7691 23.8204 11.5647 22.9003 9.58215C21.9803 7.59963 20.5121 5.92181 18.6691 4.74686C16.8262 3.5719 14.6855 2.94889 12.4999 2.95139ZM18.4721 9.53473L14.361 13.5694C14.5712 14.0137 14.6175 14.5179 14.4918 14.993C14.3662 15.468 14.0766 15.8834 13.6744 16.1657C13.2721 16.4479 12.783 16.5789 12.2935 16.5354C11.804 16.492 11.3457 16.2769 10.9994 15.9282C10.6532 15.5795 10.4413 15.1196 10.4013 14.6298C10.3613 14.14 10.4958 13.6519 10.7809 13.2516C11.066 12.8514 11.4834 12.5648 11.9593 12.4425C12.4353 12.3202 12.9391 12.3701 13.3819 12.5833L17.486 8.54861L18.4721 9.53473ZM2.49992 13.8194H4.86103V15.2083H2.47214C2.47214 14.9375 2.43742 14.6736 2.43742 14.3958C2.43742 14.1181 2.4513 14.0139 2.46519 13.8194H2.49992ZM5.8888 6.875L7.59714 8.58334L6.5763 9.54167L4.86103 7.84028C5.16889 7.48905 5.5007 7.15956 5.85408 6.85417L5.8888 6.875ZM13.1944 6.79862H11.8055V4.36806H12.4999C12.7569 4.36806 12.986 4.36806 13.1944 4.40278V6.79862ZM22.5624 14.4028C22.5624 14.6736 22.5624 14.9514 22.5277 15.2153H20.0833V13.8264H22.5346C22.5485 14.0139 22.5624 14.2083 22.5624 14.4028Z" fill="#85B6FF"/>
  </g>
  <defs>
    <clipPath id="clip0_152_365">
      <rect width="25" height="25" fill="white"/>
    </clipPath>
  </defs>
</svg>