<svg width="50" height="50" viewBox="0 0 50 50" fill="none" xmlns="http://www.w3.org/2000/svg">
<path d="M43.7501 25C43.1975 25 42.6676 25.2195 42.2769 25.6102C41.8862 26.0009 41.6667 26.5308 41.6667 27.0833V39.5833C41.6667 40.1359 41.4473 40.6658 41.0566 41.0565C40.6659 41.4472 40.1359 41.6667 39.5834 41.6667H10.4167C9.86421 41.6667 9.33431 41.4472 8.94361 41.0565C8.55291 40.6658 8.33341 40.1359 8.33341 39.5833V10.4167C8.33341 9.86413 8.55291 9.33423 8.94361 8.94353C9.33431 8.55283 9.86421 8.33333 10.4167 8.33333H22.9167C23.4693 8.33333 23.9992 8.11384 24.3899 7.72314C24.7806 7.33244 25.0001 6.80253 25.0001 6.25C25.0001 5.69747 24.7806 5.16756 24.3899 4.77686C23.9992 4.38616 23.4693 4.16667 22.9167 4.16667H10.4167C8.75914 4.16667 7.16943 4.82515 5.99733 5.99725C4.82523 7.16935 4.16675 8.75906 4.16675 10.4167V39.5833C4.16675 41.2409 4.82523 42.8306 5.99733 44.0028C7.16943 45.1749 8.75914 45.8333 10.4167 45.8333H39.5834C41.241 45.8333 42.8307 45.1749 44.0028 44.0028C45.1749 42.8306 45.8334 41.2409 45.8334 39.5833V27.0833C45.8334 26.5308 45.6139 26.0009 45.2232 25.6102C44.8325 25.2195 44.3026 25 43.7501 25ZM12.5001 26.5833V35.4167C12.5001 35.9692 12.7196 36.4991 13.1103 36.8898C13.501 37.2805 14.0309 37.5 14.5834 37.5H23.4167C23.6909 37.5016 23.9627 37.449 24.2166 37.3454C24.4704 37.2417 24.7012 37.0889 24.8959 36.8958L39.3126 22.4583L45.2292 16.6667C45.4245 16.473 45.5795 16.2426 45.6853 15.9887C45.791 15.7348 45.8455 15.4625 45.8455 15.1875C45.8455 14.9125 45.791 14.6402 45.6853 14.3863C45.5795 14.1324 45.4245 13.902 45.2292 13.7083L36.3959 4.77083C36.2022 4.57557 35.9718 4.42058 35.7179 4.31481C35.4641 4.20904 35.1918 4.15459 34.9167 4.15459C34.6417 4.15459 34.3694 4.20904 34.1155 4.31481C33.8617 4.42058 33.6313 4.57557 33.4376 4.77083L27.5626 10.6667L13.1042 25.1042C12.9112 25.2988 12.7584 25.5297 12.6547 25.7835C12.551 26.0374 12.4985 26.3092 12.5001 26.5833ZM34.9167 9.1875L40.8126 15.0833L37.8542 18.0417L31.9584 12.1458L34.9167 9.1875ZM16.6667 27.4375L29.0209 15.0833L34.9167 20.9792L22.5626 33.3333H16.6667V27.4375Z" fill="#23AE0C"/>
</svg>
