<svg xmlns="http://www.w3.org/2000/svg" width="50" height="50" viewBox="0 0 12 12" fill="none">
<path d="M8.67 2.73C8.55133 2.73 8.43533 2.76519 8.33666 2.83112C8.23799 2.89705 8.16108 2.99075 8.11567 3.10039C8.07026 3.21003 8.05838 3.33067 8.08153 3.44705C8.10468 3.56344 8.16182 3.67035 8.24574 3.75426C8.32965 3.83818 8.43656 3.89532 8.55295 3.91847C8.66933 3.94162 8.78997 3.92974 8.89961 3.88433C9.00924 3.83891 9.10295 3.76201 9.16888 3.66334C9.23481 3.56467 9.27 3.44867 9.27 3.33C9.27 3.17087 9.20679 3.01826 9.09426 2.90574C8.98174 2.79321 8.82913 2.73 8.67 2.73ZM10.97 3.94C10.9603 3.52515 10.8826 3.1147 10.74 2.725C10.6129 2.39157 10.415 2.08964 10.16 1.84C9.91241 1.58371 9.60978 1.38709 9.275 1.265C8.88633 1.11808 8.47542 1.0386 8.06 1.03C7.53 1 7.36 1 6 1C4.64 1 4.47 1 3.94 1.03C3.52458 1.0386 3.11367 1.11808 2.725 1.265C2.39084 1.38832 2.08847 1.58478 1.84 1.84C1.58371 2.08759 1.38709 2.39022 1.265 2.725C1.11808 3.11367 1.0386 3.52458 1.03 3.94C1 4.47 1 4.64 1 6C1 7.36 1 7.53 1.03 8.06C1.0386 8.47542 1.11808 8.88633 1.265 9.275C1.38709 9.60978 1.58371 9.91241 1.84 10.16C2.08847 10.4152 2.39084 10.6117 2.725 10.735C3.11367 10.8819 3.52458 10.9614 3.94 10.97C4.47 11 4.64 11 6 11C7.36 11 7.53 11 8.06 10.97C8.47542 10.9614 8.88633 10.8819 9.275 10.735C9.60978 10.6129 9.91241 10.4163 10.16 10.16C10.4161 9.91129 10.6142 9.6091 10.74 9.275C10.8826 8.8853 10.9603 8.47485 10.97 8.06C10.97 7.53 11 7.36 11 6C11 4.64 11 4.47 10.97 3.94ZM10.07 8C10.0664 8.31738 10.0089 8.63185 9.9 8.93C9.82017 9.1476 9.69194 9.34421 9.525 9.505C9.36282 9.67025 9.16661 9.79822 8.95 9.88C8.65185 9.98888 8.33739 10.0464 8.02 10.05C7.52 10.075 7.335 10.08 6.02 10.08C4.705 10.08 4.52 10.08 4.02 10.05C3.69044 10.0562 3.3623 10.0054 3.05 9.9C2.84289 9.81404 2.65568 9.68639 2.5 9.525C2.33404 9.36437 2.20742 9.16759 2.13 8.95C2.00793 8.64757 1.94022 8.32597 1.93 8C1.93 7.5 1.9 7.315 1.9 6C1.9 4.685 1.9 4.5 1.93 4C1.93224 3.67553 1.99147 3.35397 2.105 3.05C2.19302 2.83896 2.32813 2.65083 2.5 2.5C2.65191 2.32808 2.83964 2.19155 3.05 2.1C3.35478 1.99002 3.676 1.93254 4 1.93C4.5 1.93 4.685 1.9 6 1.9C7.315 1.9 7.5 1.9 8 1.93C8.31738 1.93364 8.63185 1.99112 8.93 2.1C9.15721 2.18433 9.36115 2.32142 9.525 2.5C9.68885 2.65359 9.81688 2.84137 9.9 3.05C10.0111 3.35447 10.0686 3.67589 10.07 4C10.095 4.5 10.1 4.685 10.1 6C10.1 7.315 10.095 7.5 10.07 8ZM6 3.435C5.4929 3.43599 4.99748 3.58726 4.57633 3.86971C4.15517 4.15215 3.82719 4.5531 3.63382 5.02188C3.44044 5.49065 3.39036 6.00623 3.4899 6.50346C3.58943 7.0007 3.83412 7.45727 4.19304 7.81549C4.55196 8.17371 5.00901 8.41751 5.50643 8.51607C6.00385 8.61464 6.51933 8.56355 6.98773 8.36927C7.45613 8.17498 7.85644 7.84622 8.13806 7.42452C8.41969 7.00281 8.57 6.5071 8.57 6C8.57066 5.66255 8.5046 5.3283 8.37562 5.01648C8.24664 4.70465 8.05728 4.4214 7.81843 4.18302C7.57959 3.94465 7.29597 3.75584 6.9839 3.62746C6.67182 3.49909 6.33744 3.43368 6 3.435ZM6 7.665C5.67069 7.665 5.34878 7.56735 5.07498 7.3844C4.80117 7.20144 4.58776 6.94141 4.46174 6.63717C4.33572 6.33293 4.30275 5.99815 4.36699 5.67517C4.43124 5.3522 4.58981 5.05552 4.82267 4.82267C5.05552 4.58981 5.3522 4.43124 5.67517 4.36699C5.99815 4.30275 6.33293 4.33572 6.63717 4.46174C6.94141 4.58776 7.20144 4.80117 7.3844 5.07498C7.56735 5.34878 7.665 5.67069 7.665 6C7.665 6.21865 7.62193 6.43516 7.53826 6.63717C7.45458 6.83917 7.33194 7.02272 7.17733 7.17733C7.02272 7.33194 6.83917 7.45458 6.63717 7.53826C6.43516 7.62193 6.21865 7.665 6 7.665Z" fill="#FFFFFF"/>
</svg>