<svg xmlns="http://www.w3.org/2000/svg" width="50" height="50" viewBox="0 0 12 12" fill="none">
  <path d="M3.46997 2.50001C3.46984 2.76523 3.36435 3.01953 3.17672 3.20697C2.98909 3.39441 2.73469 3.49964 2.46947 3.49951C2.20425 3.49938 1.94995 3.3939 1.76251 3.20626C1.57507 3.01863 1.46984 2.76423 1.46997 2.49901C1.4701 2.2338 1.57559 1.97949 1.76322 1.79205C1.95085 1.60461 2.20525 1.49938 2.47047 1.49951C2.73569 1.49964 2.98999 1.60513 3.17743 1.79276C3.36487 1.98039 3.4701 2.2348 3.46997 2.50001ZM3.49997 4.24001H1.49997V10.5H3.49997V4.24001ZM6.65997 4.24001H4.66997V10.5H6.63997V7.21501C6.63997 5.38501 9.02497 5.21501 9.02497 7.21501V10.5H11V6.53501C11 3.45001 7.46997 3.56501 6.63997 5.08001L6.65997 4.24001Z" fill="#FFFFFF"/>
</svg>