<svg xmlns="http://www.w3.org/2000/svg" width="200" height="200" viewBox="0 0 200 200" fill="none">
  <path d="M46.1333 182.383C47.4813 183.084 48.9949 183.405 50.5115 183.311C52.0281 183.217 53.4904 182.712 54.7416 181.85L163.075 106.85C164.182 106.083 165.087 105.059 165.711 103.866C166.336 102.673 166.663 101.347 166.663 100C166.663 98.6533 166.336 97.3266 165.711 96.1336C165.087 94.9407 164.182 93.9169 163.075 93.15L54.7416 18.15C53.4914 17.2849 52.0284 16.7783 50.5109 16.6851C48.9934 16.5919 47.4794 16.9156 46.1327 17.6211C44.786 18.3267 43.658 19.3872 42.8708 20.6878C42.0835 21.9884 41.6671 23.4796 41.6666 25V175C41.6664 176.521 42.0825 178.013 42.8699 179.315C43.6572 180.616 44.7858 181.677 46.1333 182.383Z" fill="#105AB2"/>
</svg>