<svg width="100" height="100" viewBox="0 0 100 100" fill="none" xmlns="http://www.w3.org/2000/svg">
<g id="Discover Icon">
<path id="Vector" d="M18.75 53.125H43.75V59.375H18.75V53.125Z" fill="white"/>
<path id="Vector_2" d="M9.375 59.375C11.1009 59.375 12.5 57.9759 12.5 56.25C12.5 54.5241 11.1009 53.125 9.375 53.125C7.64911 53.125 6.25 54.5241 6.25 56.25C6.25 57.9759 7.64911 59.375 9.375 59.375Z" fill="white"/>
<path id="Vector_3" d="M40.625 46.875C42.3509 46.875 43.75 45.4759 43.75 43.75C43.75 42.0241 42.3509 40.625 40.625 40.625C38.8991 40.625 37.5 42.0241 37.5 43.75C37.5 45.4759 38.8991 46.875 40.625 46.875Z" fill="white"/>
<path id="Vector_4" d="M6.25 40.625H31.25V46.875H6.25V40.625ZM18.75 28.125H43.75V34.375H18.75V28.125Z" fill="white"/>
<path id="Vector_5" d="M9.375 34.375C11.1009 34.375 12.5 32.9759 12.5 31.25C12.5 29.5241 11.1009 28.125 9.375 28.125C7.64911 28.125 6.25 29.5241 6.25 31.25C6.25 32.9759 7.64911 34.375 9.375 34.375Z" fill="white"/>
<path id="Vector_6" d="M93.75 89.375L70.625 66.25C75.3125 60 78.125 52.1875 78.125 43.75C78.125 23.125 61.25 6.25 40.625 6.25C30.3125 6.25 20.625 10.3125 13.4375 18.125L18.125 22.5C23.75 15.9375 31.875 12.5 40.625 12.5C57.8125 12.5 71.875 26.5625 71.875 43.75C71.875 60.9375 57.8125 75 40.625 75C31.25 75 22.5 70.9375 16.5625 63.75L11.875 67.8125C18.75 76.25 29.375 81.25 40.625 81.25C50.625 81.25 59.6875 77.1875 66.5625 70.9375L89.375 93.75L93.75 89.375Z" fill="white"/>
</g>
</svg>
