<svg width="100" height="100" viewBox="0 0 100 100" fill="none" xmlns="http://www.w3.org/2000/svg">
<g id="Gift icon">
<path id="Vector" d="M91.6667 50V83.3333C91.6667 85.5435 90.7887 87.6631 89.2259 89.2259C87.6631 90.7887 85.5435 91.6667 83.3333 91.6667H16.6667C14.4565 91.6667 12.3369 90.7887 10.7741 89.2259C9.21131 87.6631 8.33334 85.5435 8.33334 83.3333V50C7.22827 50 6.16846 49.561 5.38706 48.7796C4.60566 47.9982 4.16667 46.9384 4.16667 45.8333V33.3333C4.16667 31.1232 5.04465 29.0036 6.60745 27.4408C8.17025 25.878 10.2899 25 12.5 25H25.7083C25.2374 23.6614 24.9979 22.2524 25 20.8333C25 17.5181 26.317 14.3387 28.6612 11.9945C31.0054 9.6503 34.1848 8.33334 37.5 8.33334C41.6667 8.33334 45.3333 10.4167 47.625 13.5V13.4583L50 16.6667L52.375 13.4583V13.5C54.6667 10.4167 58.3333 8.33334 62.5 8.33334C65.8152 8.33334 68.9946 9.6503 71.3388 11.9945C73.683 14.3387 75 17.5181 75 20.8333C75.0021 22.2524 74.7626 23.6614 74.2917 25H87.5C89.7101 25 91.8298 25.878 93.3926 27.4408C94.9554 29.0036 95.8333 31.1232 95.8333 33.3333V45.8333C95.8333 46.9384 95.3943 47.9982 94.613 48.7796C93.8316 49.561 92.7717 50 91.6667 50ZM16.6667 83.3333H45.8333V50H16.6667V83.3333ZM83.3333 83.3333V50H54.1667V83.3333H83.3333ZM37.5 16.6667C36.3949 16.6667 35.3351 17.1057 34.5537 17.8871C33.7723 18.6685 33.3333 19.7283 33.3333 20.8333C33.3333 21.9384 33.7723 22.9982 34.5537 23.7796C35.3351 24.561 36.3949 25 37.5 25C38.6051 25 39.6649 24.561 40.4463 23.7796C41.2277 22.9982 41.6667 21.9384 41.6667 20.8333C41.6667 19.7283 41.2277 18.6685 40.4463 17.8871C39.6649 17.1057 38.6051 16.6667 37.5 16.6667ZM62.5 16.6667C61.3949 16.6667 60.3351 17.1057 59.5537 17.8871C58.7723 18.6685 58.3333 19.7283 58.3333 20.8333C58.3333 21.9384 58.7723 22.9982 59.5537 23.7796C60.3351 24.561 61.3949 25 62.5 25C63.6051 25 64.6649 24.561 65.4463 23.7796C66.2277 22.9982 66.6667 21.9384 66.6667 20.8333C66.6667 19.7283 66.2277 18.6685 65.4463 17.8871C64.6649 17.1057 63.6051 16.6667 62.5 16.6667ZM12.5 33.3333V41.6667H45.8333V33.3333H12.5ZM54.1667 33.3333V41.6667H87.5V33.3333H54.1667Z" fill="white"/>
</g>
</svg>
