<svg width="12" height="12" viewBox="0 0 12 12" fill="none" xmlns="http://www.w3.org/2000/svg">
<g id="Linkedin logo">
<path id="Vector" d="M3.47 2.50001C3.46987 2.76523 3.36438 3.01953 3.17675 3.20697C2.98912 3.39441 2.73472 3.49964 2.4695 3.49951C2.20428 3.49938 1.94998 3.3939 1.76254 3.20626C1.5751 3.01863 1.46987 2.76423 1.47 2.49901C1.47013 2.2338 1.57562 1.97949 1.76325 1.79205C1.95088 1.60461 2.20528 1.49938 2.4705 1.49951C2.73572 1.49964 2.99002 1.60513 3.17746 1.79276C3.3649 1.98039 3.47013 2.2348 3.47 2.50001ZM3.5 4.24001H1.5V10.5H3.5V4.24001ZM6.66 4.24001H4.67V10.5H6.64V7.21501C6.64 5.38501 9.025 5.21501 9.025 7.21501V10.5H11V6.53501C11 3.45001 7.47 3.56501 6.64 5.08001L6.66 4.24001Z" fill="#105AB2"/>
</g>
</svg>
