<svg xmlns="http://www.w3.org/2000/svg" width="100" height="100" viewBox="0 0 100 100" fill="none">
  <g clip-path="url(#clip0_336_28)">
    <path d="M55.4125 13.1166L91.3875 75.425C91.936 76.3751 92.2248 77.4528 92.2248 78.5499C92.2248 79.647 91.9361 80.7248 91.3875 81.6749C90.839 82.625 90.05 83.414 89.0999 83.9626C88.1498 84.5111 87.0721 84.7999 85.975 84.8H14.025C12.9279 84.7999 11.8501 84.5111 10.9 83.9626C9.94995 83.414 9.16098 82.625 8.61245 81.6749C8.06391 80.7248 7.77514 79.647 7.77515 78.5499C7.77515 77.4528 8.06394 76.3751 8.61249 75.425L44.5875 13.1166C46.9917 8.94997 53.0042 8.94997 55.4125 13.1166ZM50 20.4083L17.6333 76.4666H82.3667L50 20.4083ZM50 62.5C51.1051 62.5 52.1649 62.939 52.9463 63.7204C53.7277 64.5018 54.1667 65.5616 54.1667 66.6666C54.1667 67.7717 53.7277 68.8315 52.9463 69.6129C52.1649 70.3943 51.1051 70.8333 50 70.8333C48.8949 70.8333 47.8351 70.3943 47.0537 69.6129C46.2723 68.8315 45.8333 67.7717 45.8333 66.6666C45.8333 65.5616 46.2723 64.5018 47.0537 63.7204C47.8351 62.939 48.8949 62.5 50 62.5ZM50 33.3333C51.1051 33.3333 52.1649 33.7723 52.9463 34.5537C53.7277 35.3351 54.1667 36.3949 54.1667 37.5V54.1666C54.1667 55.2717 53.7277 56.3315 52.9463 57.1129C52.1649 57.8943 51.1051 58.3333 50 58.3333C48.8949 58.3333 47.8351 57.8943 47.0537 57.1129C46.2723 56.3315 45.8333 55.2717 45.8333 54.1666V37.5C45.8333 36.3949 46.2723 35.3351 47.0537 34.5537C47.8351 33.7723 48.8949 33.3333 50 33.3333Z" fill="#105AB2"/>
  </g>
  <defs>
    <clipPath id="clip0_336_28">
      <rect width="100" height="100" fill="white"/>
    </clipPath>
  </defs>
</svg>