<svg xmlns="http://www.w3.org/2000/svg" width="7" height="7" viewBox="0 0 7 7" fill="none">
  <g clip-path="url(#clip0_129_358)">
    <path d="M5.8363 1.30213L0.833804 1.30213C0.783156 1.30228 0.73351 1.31537 0.690211 1.33999C0.646911 1.36461 0.611598 1.39983 0.588071 1.44186C0.564544 1.48389 0.553695 1.53113 0.556692 1.57851C0.559689 1.62588 0.576418 1.6716 0.605078 1.71073L3.10633 5.09614C3.20999 5.23651 3.45956 5.23651 3.5635 5.09614L6.06475 1.71073C6.0937 1.67168 6.11068 1.62594 6.11384 1.57849C6.117 1.53103 6.10622 1.48367 6.08267 1.44156C6.05913 1.39944 6.02371 1.36418 5.98027 1.33959C5.93684 1.31501 5.88705 1.30206 5.8363 1.30213Z" fill="#105AB2"/>
  </g>
  <defs>
    <clipPath id="clip0_129_358">
      <rect width="6.67" height="6.25" fill="white" transform="matrix(-1 0 0 -1 6.67004 6.25)"/>
    </clipPath>
  </defs>
</svg>