<svg xmlns="http://www.w3.org/2000/svg" width="200" height="200" viewBox="0 0 200 200" fill="none">
  <path d="M36.925 106.85L145.258 181.85C146.509 182.715 147.972 183.222 149.489 183.315C151.007 183.408 152.521 183.084 153.867 182.379C155.214 181.673 156.342 180.613 157.129 179.312C157.916 178.012 158.333 176.52 158.333 175V25C158.334 23.479 157.919 21.9867 157.132 20.6848C156.346 19.383 155.218 18.3213 153.871 17.6148C152.524 16.9082 151.009 16.5838 149.491 16.6767C147.973 16.7696 146.509 17.2762 145.258 18.1417L36.925 93.1417C35.8214 93.9119 34.92 94.9373 34.2976 96.1306C33.6752 97.324 33.3502 98.6499 33.3502 99.9958C33.3502 101.342 33.6752 102.668 34.2976 103.861C34.92 105.054 35.8214 106.08 36.925 106.85Z" fill="#105AB2"/>
</svg>